<!DOCTYPE svg PUBLIC "-//W3C//DTD SVG 1.1//EN" 
"http://www.w3.org/Graphics/SVG/1.1/DTD/svg11.dtd">
<svg width="100%" height="100%" version="1.1" xmlns="http://www.w3.org/2000/svg">
  <line x1="874.062379" y1="871.290950" x2="852.651978" y2="853.081975"
      style="stroke:blue;stroke-width:3.000000"/>
  <line x1="916.206488" y1="220.798507" x2="808.913199" y2="396.292565"
      style="stroke:blue;stroke-width:3.000000"/>
  <line x1="771.290428" y1="70.692123" x2="810.592618" y2="109.480690"
      style="stroke:blue;stroke-width:3.000000"/>
  <line x1="14.698501" y1="808.437979" x2="156.992020" y2="887.323031"
      style="stroke:blue;stroke-width:3.000000"/>
  <line x1="598.267152" y1="895.737849" x2="586.814739" y2="939.609667"
      style="stroke:blue;stroke-width:3.000000"/>
  <line x1="770.733245" y1="609.539421" x2="821.350118" y2="540.743051"
      style="stroke:blue;stroke-width:3.000000"/>
  <line x1="888.435877" y1="32.360639" x2="897.947529" y2="5.274589"
      style="stroke:blue;stroke-width:3.000000"/>
  <line x1="598.267152" y1="895.737849" x2="724.930547" y2="804.699674"
      style="stroke:blue;stroke-width:3.000000"/>
  <line x1="428.265714" y1="866.507453" x2="394.961949" y2="804.803436"
      style="stroke:blue;stroke-width:3.000000"/>
  <line x1="555.355539" y1="258.618757" x2="538.426151" y2="196.323876"
      style="stroke:blue;stroke-width:3.000000"/>
  <line x1="89.005563" y1="557.494141" x2="182.133843" y2="630.764948"
      style="stroke:blue;stroke-width:3.000000"/>
  <line x1="874.062379" y1="871.290950" x2="770.733245" y2="609.539421"
      style="stroke:blue;stroke-width:3.000000"/>
  <line x1="888.435877" y1="32.360639" x2="916.206488" y2="220.798507"
      style="stroke:blue;stroke-width:3.000000"/>
  <line x1="541.046573" y1="36.821309" x2="326.821124" y2="154.967742"
      style="stroke:blue;stroke-width:3.000000"/>
  <line x1="394.961949" y1="804.803436" x2="339.160572" y2="828.263859"
      style="stroke:blue;stroke-width:3.000000"/>
  <line x1="200.931851" y1="723.988529" x2="254.381624" y2="754.002820"
      style="stroke:blue;stroke-width:3.000000"/>
  <line x1="724.930547" y1="804.699674" x2="852.651978" y2="853.081975"
      style="stroke:blue;stroke-width:3.000000"/>
  <line x1="607.425235" y1="490.083576" x2="625.850461" y2="632.574810"
      style="stroke:blue;stroke-width:3.000000"/>
  <line x1="283.575208" y1="783.425955" x2="254.381624" y2="754.002820"
      style="stroke:blue;stroke-width:3.000000"/>
  <line x1="291.287383" y1="378.574200" x2="360.748594" y2="430.304070"
      style="stroke:blue;stroke-width:3.000000"/>
  <line x1="68.388788" y1="532.605616" x2="34.140935" y2="723.546925"
      style="stroke:blue;stroke-width:3.000000"/>
  <line x1="288.309924" y1="665.348212" x2="431.823388" y2="654.110461"
      style="stroke:blue;stroke-width:3.000000"/>
  <line x1="808.913199" y1="396.292565" x2="821.350118" y2="540.743051"
      style="stroke:blue;stroke-width:3.000000"/>
  <line x1="109.214953" y1="252.757889" x2="127.035149" y2="332.166486"
      style="stroke:blue;stroke-width:3.000000"/>
  <line x1="109.214953" y1="252.757889" x2="326.821124" y2="154.967742"
      style="stroke:blue;stroke-width:3.000000"/>
  <line x1="288.309924" y1="665.348212" x2="182.133843" y2="630.764948"
      style="stroke:blue;stroke-width:3.000000"/>
  <line x1="817.100076" y1="138.796266" x2="788.964192" y2="152.713894"
      style="stroke:blue;stroke-width:3.000000"/>
  <line x1="14.698501" y1="808.437979" x2="62.453471" y2="759.565280"
      style="stroke:blue;stroke-width:3.000000"/>
  <line x1="687.075996" y1="153.133196" x2="555.355539" y2="258.618757"
      style="stroke:blue;stroke-width:3.000000"/>
  <line x1="419.581110" y1="394.448092" x2="360.748594" y2="430.304070"
      style="stroke:blue;stroke-width:3.000000"/>
  <line x1="156.992020" y1="887.323031" x2="138.107691" y2="773.622281"
      style="stroke:blue;stroke-width:3.000000"/>
  <line x1="817.100076" y1="138.796266" x2="810.592618" y2="109.480690"
      style="stroke:blue;stroke-width:3.000000"/>
  <line x1="127.035149" y1="332.166486" x2="285.819637" y2="378.018556"
      style="stroke:blue;stroke-width:3.000000"/>
  <line x1="62.453471" y1="759.565280" x2="34.140935" y2="723.546925"
      style="stroke:blue;stroke-width:3.000000"/>
  <line x1="291.287383" y1="378.574200" x2="285.819637" y2="378.018556"
      style="stroke:blue;stroke-width:3.000000"/>
  <line x1="771.290428" y1="70.692123" x2="897.947529" y2="5.274589"
      style="stroke:blue;stroke-width:3.000000"/>
  <line x1="428.265714" y1="866.507453" x2="529.462504" y2="830.780387"
      style="stroke:blue;stroke-width:3.000000"/>
  <line x1="607.425235" y1="490.083576" x2="532.773867" y2="337.332414"
      style="stroke:blue;stroke-width:3.000000"/>
  <line x1="530.845993" y1="335.865337" x2="532.773867" y2="337.332414"
      style="stroke:blue;stroke-width:3.000000"/>
  <line x1="586.814739" y1="939.609667" x2="546.012587" y2="998.341859"
      style="stroke:blue;stroke-width:3.000000"/>
  <line x1="726.733986" y1="211.321539" x2="788.964192" y2="152.713894"
      style="stroke:blue;stroke-width:3.000000"/>
  <line x1="89.005563" y1="557.494141" x2="68.388788" y2="532.605616"
      style="stroke:blue;stroke-width:3.000000"/>
  <line x1="200.931851" y1="723.988529" x2="138.107691" y2="773.622281"
      style="stroke:blue;stroke-width:3.000000"/>
  <line x1="541.046573" y1="36.821309" x2="538.426151" y2="196.323876"
      style="stroke:blue;stroke-width:3.000000"/>
  <line x1="546.012587" y1="998.341859" x2="529.462504" y2="830.780387"
      style="stroke:blue;stroke-width:3.000000"/>
  <line x1="726.733986" y1="211.321539" x2="687.075996" y2="153.133196"
      style="stroke:blue;stroke-width:3.000000"/>
  <line x1="283.575208" y1="783.425955" x2="339.160572" y2="828.263859"
      style="stroke:blue;stroke-width:3.000000"/>
  <line x1="472.598100" y1="718.547215" x2="625.850461" y2="632.574810"
      style="stroke:blue;stroke-width:3.000000"/>
  <line x1="530.845993" y1="335.865337" x2="419.581110" y2="394.448092"
      style="stroke:blue;stroke-width:3.000000"/>
  <line x1="472.598100" y1="718.547215" x2="431.823388" y2="654.110461"
      style="stroke:blue;stroke-width:3.000000"/>
  <circle cx="555.355539" cy="258.618757" r="5.000000"
      style="stroke:black;stroke-width:1;fill:red" />
  <text x="555.855539" y="258.118757"
      style="font-family:Verdana;font-size:12">#97</text>
  <circle cx="538.426151" cy="196.323876" r="5.000000"
      style="stroke:black;stroke-width:1;fill:red" />
  <text x="538.926151" y="195.823876"
      style="font-family:Verdana;font-size:12">#98</text>
  <circle cx="810.592618" cy="109.480690" r="5.000000"
      style="stroke:black;stroke-width:1;fill:red" />
  <text x="811.092618" y="108.980690"
      style="font-family:Verdana;font-size:12">#83</text>
  <circle cx="89.005563" cy="557.494141" r="5.000000"
      style="stroke:black;stroke-width:1;fill:red" />
  <text x="89.505563" y="556.994141"
      style="font-family:Verdana;font-size:12">#80</text>
  <circle cx="285.819637" cy="378.018556" r="5.000000"
      style="stroke:black;stroke-width:1;fill:red" />
  <text x="286.319637" y="377.518556"
      style="font-family:Verdana;font-size:12">#89</text>
  <circle cx="852.651978" cy="853.081975" r="5.000000"
      style="stroke:black;stroke-width:1;fill:red" />
  <text x="853.151978" y="852.581975"
      style="font-family:Verdana;font-size:12">#99</text>
  <circle cx="530.845993" cy="335.865337" r="5.000000"
      style="stroke:black;stroke-width:1;fill:red" />
  <text x="531.345993" y="335.365337"
      style="font-family:Verdana;font-size:12">#105</text>
  <circle cx="817.100076" cy="138.796266" r="5.000000"
      style="stroke:black;stroke-width:1;fill:red" />
  <text x="817.600076" y="138.296266"
      style="font-family:Verdana;font-size:12">#63</text>
  <circle cx="771.290428" cy="70.692123" r="5.000000"
      style="stroke:black;stroke-width:1;fill:red" />
  <text x="771.790428" y="70.192123"
      style="font-family:Verdana;font-size:12">#59</text>
  <circle cx="916.206488" cy="220.798507" r="5.000000"
      style="stroke:black;stroke-width:1;fill:red" />
  <text x="916.706488" y="220.298507"
      style="font-family:Verdana;font-size:12">#69</text>
  <circle cx="283.575208" cy="783.425955" r="5.000000"
      style="stroke:black;stroke-width:1;fill:red" />
  <text x="284.075208" y="782.925955"
      style="font-family:Verdana;font-size:12">#58</text>
  <circle cx="68.388788" cy="532.605616" r="5.000000"
      style="stroke:black;stroke-width:1;fill:red" />
  <text x="68.888788" y="532.105616"
      style="font-family:Verdana;font-size:12">#85</text>
  <circle cx="200.931851" cy="723.988529" r="5.000000"
      style="stroke:black;stroke-width:1;fill:red" />
  <text x="201.431851" y="723.488529"
      style="font-family:Verdana;font-size:12">#103</text>
  <circle cx="360.748594" cy="430.304070" r="5.000000"
      style="stroke:black;stroke-width:1;fill:red" />
  <text x="361.248594" y="429.804070"
      style="font-family:Verdana;font-size:12">#75</text>
  <circle cx="808.913199" cy="396.292565" r="5.000000"
      style="stroke:black;stroke-width:1;fill:red" />
  <text x="809.413199" y="395.792565"
      style="font-family:Verdana;font-size:12">#90</text>
  <circle cx="127.035149" cy="332.166486" r="5.000000"
      style="stroke:black;stroke-width:1;fill:red" />
  <text x="127.535149" y="331.666486"
      style="font-family:Verdana;font-size:12">#81</text>
  <circle cx="138.107691" cy="773.622281" r="5.000000"
      style="stroke:black;stroke-width:1;fill:red" />
  <text x="138.607691" y="773.122281"
      style="font-family:Verdana;font-size:12">#78</text>
  <circle cx="326.821124" cy="154.967742" r="5.000000"
      style="stroke:black;stroke-width:1;fill:red" />
  <text x="327.321124" y="154.467742"
      style="font-family:Verdana;font-size:12">#95</text>
  <circle cx="339.160572" cy="828.263859" r="5.000000"
      style="stroke:black;stroke-width:1;fill:red" />
  <text x="339.660572" y="827.763859"
      style="font-family:Verdana;font-size:12">#88</text>
  <circle cx="625.850461" cy="632.574810" r="5.000000"
      style="stroke:black;stroke-width:1;fill:red" />
  <text x="626.350461" y="632.074810"
      style="font-family:Verdana;font-size:12">#65</text>
  <circle cx="109.214953" cy="252.757889" r="5.000000"
      style="stroke:black;stroke-width:1;fill:red" />
  <text x="109.714953" y="252.257889"
      style="font-family:Verdana;font-size:12">#60</text>
  <circle cx="821.350118" cy="540.743051" r="5.000000"
      style="stroke:black;stroke-width:1;fill:red" />
  <text x="821.850118" y="540.243051"
      style="font-family:Verdana;font-size:12">#96</text>
  <circle cx="586.814739" cy="939.609667" r="5.000000"
      style="stroke:black;stroke-width:1;fill:red" />
  <text x="587.314739" y="939.109667"
      style="font-family:Verdana;font-size:12">#61</text>
  <circle cx="788.964192" cy="152.713894" r="5.000000"
      style="stroke:black;stroke-width:1;fill:red" />
  <text x="789.464192" y="152.213894"
      style="font-family:Verdana;font-size:12">#74</text>
  <circle cx="874.062379" cy="871.290950" r="5.000000"
      style="stroke:black;stroke-width:1;fill:red" />
  <text x="874.562379" y="870.790950"
      style="font-family:Verdana;font-size:12">#79</text>
  <circle cx="288.309924" cy="665.348212" r="5.000000"
      style="stroke:black;stroke-width:1;fill:red" />
  <text x="288.809924" y="664.848212"
      style="font-family:Verdana;font-size:12">#100</text>
  <circle cx="529.462504" cy="830.780387" r="5.000000"
      style="stroke:black;stroke-width:1;fill:red" />
  <text x="529.962504" y="830.280387"
      style="font-family:Verdana;font-size:12">#82</text>
  <circle cx="897.947529" cy="5.274589" r="5.000000"
      style="stroke:black;stroke-width:1;fill:red" />
  <text x="898.447529" y="4.774589"
      style="font-family:Verdana;font-size:12">#92</text>
  <circle cx="472.598100" cy="718.547215" r="5.000000"
      style="stroke:black;stroke-width:1;fill:red" />
  <text x="473.098100" y="718.047215"
      style="font-family:Verdana;font-size:12">#104</text>
  <circle cx="546.012587" cy="998.341859" r="5.000000"
      style="stroke:black;stroke-width:1;fill:red" />
  <text x="546.512587" y="997.841859"
      style="font-family:Verdana;font-size:12">#70</text>
  <circle cx="607.425235" cy="490.083576" r="5.000000"
      style="stroke:black;stroke-width:1;fill:red" />
  <text x="607.925235" y="489.583576"
      style="font-family:Verdana;font-size:12">#102</text>
  <circle cx="770.733245" cy="609.539421" r="5.000000"
      style="stroke:black;stroke-width:1;fill:red" />
  <text x="771.233245" y="609.039421"
      style="font-family:Verdana;font-size:12">#93</text>
  <circle cx="726.733986" cy="211.321539" r="5.000000"
      style="stroke:black;stroke-width:1;fill:red" />
  <text x="727.233986" y="210.821539"
      style="font-family:Verdana;font-size:12">#68</text>
  <circle cx="34.140935" cy="723.546925" r="5.000000"
      style="stroke:black;stroke-width:1;fill:red" />
  <text x="34.640935" y="723.046925"
      style="font-family:Verdana;font-size:12">#86</text>
  <circle cx="394.961949" cy="804.803436" r="5.000000"
      style="stroke:black;stroke-width:1;fill:red" />
  <text x="395.461949" y="804.303436"
      style="font-family:Verdana;font-size:12">#73</text>
  <circle cx="62.453471" cy="759.565280" r="5.000000"
      style="stroke:black;stroke-width:1;fill:red" />
  <text x="62.953471" y="759.065280"
      style="font-family:Verdana;font-size:12">#77</text>
  <circle cx="431.823388" cy="654.110461" r="5.000000"
      style="stroke:black;stroke-width:1;fill:red" />
  <text x="432.323388" y="653.610461"
      style="font-family:Verdana;font-size:12">#91</text>
  <circle cx="156.992020" cy="887.323031" r="5.000000"
      style="stroke:black;stroke-width:1;fill:red" />
  <text x="157.492020" y="886.823031"
      style="font-family:Verdana;font-size:12">#106</text>
  <circle cx="428.265714" cy="866.507453" r="5.000000"
      style="stroke:black;stroke-width:1;fill:red" />
  <text x="428.765714" y="866.007453"
      style="font-family:Verdana;font-size:12">#62</text>
  <circle cx="419.581110" cy="394.448092" r="5.000000"
      style="stroke:black;stroke-width:1;fill:red" />
  <text x="420.081110" y="393.948092"
      style="font-family:Verdana;font-size:12">#64</text>
  <circle cx="888.435877" cy="32.360639" r="5.000000"
      style="stroke:black;stroke-width:1;fill:red" />
  <text x="888.935877" y="31.860639"
      style="font-family:Verdana;font-size:12">#67</text>
  <circle cx="532.773867" cy="337.332414" r="5.000000"
      style="stroke:black;stroke-width:1;fill:red" />
  <text x="533.273867" y="336.832414"
      style="font-family:Verdana;font-size:12">#76</text>
  <circle cx="598.267152" cy="895.737849" r="5.000000"
      style="stroke:black;stroke-width:1;fill:red" />
  <text x="598.767152" y="895.237849"
      style="font-family:Verdana;font-size:12">#107</text>
  <circle cx="687.075996" cy="153.133196" r="5.000000"
      style="stroke:black;stroke-width:1;fill:red" />
  <text x="687.575996" y="152.633196"
      style="font-family:Verdana;font-size:12">#72</text>
  <circle cx="541.046573" cy="36.821309" r="5.000000"
      style="stroke:black;stroke-width:1;fill:red" />
  <text x="541.546573" y="36.321309"
      style="font-family:Verdana;font-size:12">#84</text>
  <circle cx="182.133843" cy="630.764948" r="5.000000"
      style="stroke:black;stroke-width:1;fill:red" />
  <text x="182.633843" y="630.264948"
      style="font-family:Verdana;font-size:12">#94</text>
  <circle cx="724.930547" cy="804.699674" r="5.000000"
      style="stroke:black;stroke-width:1;fill:red" />
  <text x="725.430547" y="804.199674"
      style="font-family:Verdana;font-size:12">#66</text>
  <circle cx="14.698501" cy="808.437979" r="5.000000"
      style="stroke:black;stroke-width:1;fill:red" />
  <text x="15.198501" y="807.937979"
      style="font-family:Verdana;font-size:12">#101</text>
  <circle cx="291.287383" cy="378.574200" r="5.000000"
      style="stroke:black;stroke-width:1;fill:red" />
  <text x="291.787383" y="378.074200"
      style="font-family:Verdana;font-size:12">#71</text>
  <circle cx="254.381624" cy="754.002820" r="5.000000"
      style="stroke:black;stroke-width:1;fill:red" />
  <text x="254.881624" y="753.502820"
      style="font-family:Verdana;font-size:12">#87</text>
</svg>
