<!DOCTYPE svg PUBLIC "-//W3C//DTD SVG 1.1//EN" 
"http://www.w3.org/Graphics/SVG/1.1/DTD/svg11.dtd">
<svg width="100%" height="100%" version="1.1" xmlns="http://www.w3.org/2000/svg">
  <line x1="122.942007" y1="599.403434" x2="124.240726" y2="504.367085"
      style="stroke:blue;stroke-width:3.000000"/>
  <line x1="149.111731" y1="828.464164" x2="178.813056" y2="849.388394"
      style="stroke:blue;stroke-width:3.000000"/>
  <line x1="523.892558" y1="736.208838" x2="513.551408" y2="733.863527"
      style="stroke:blue;stroke-width:3.000000"/>
  <line x1="149.111731" y1="828.464164" x2="24.642342" y2="764.692660"
      style="stroke:blue;stroke-width:3.000000"/>
  <line x1="433.190987" y1="212.768887" x2="441.272624" y2="258.413459"
      style="stroke:blue;stroke-width:3.000000"/>
  <line x1="206.138455" y1="147.300701" x2="114.160720" y2="131.892569"
      style="stroke:blue;stroke-width:3.000000"/>
  <line x1="604.301025" y1="581.354714" x2="472.938973" y2="662.023191"
      style="stroke:blue;stroke-width:3.000000"/>
  <line x1="915.873844" y1="4.247519" x2="622.217740" y2="36.116104"
      style="stroke:blue;stroke-width:3.000000"/>
  <line x1="79.220362" y1="388.152815" x2="42.854518" y2="322.560125"
      style="stroke:blue;stroke-width:3.000000"/>
  <line x1="176.019875" y1="303.250886" x2="206.138455" y2="147.300701"
      style="stroke:blue;stroke-width:3.000000"/>
  <line x1="802.541198" y1="200.053909" x2="925.643895" y2="287.688235"
      style="stroke:blue;stroke-width:3.000000"/>
  <line x1="324.183186" y1="745.115323" x2="325.578206" y2="616.952616"
      style="stroke:blue;stroke-width:3.000000"/>
  <line x1="181.797556" y1="926.197622" x2="349.804544" y2="972.074531"
      style="stroke:blue;stroke-width:3.000000"/>
  <line x1="183.772853" y1="446.738633" x2="202.031307" y2="447.240728"
      style="stroke:blue;stroke-width:3.000000"/>
  <line x1="325.578206" y1="616.952616" x2="472.938973" y2="662.023191"
      style="stroke:blue;stroke-width:3.000000"/>
  <line x1="898.769999" y1="480.025660" x2="747.648768" y2="364.257955"
      style="stroke:blue;stroke-width:3.000000"/>
  <line x1="79.220362" y1="388.152815" x2="183.772853" y2="446.738633"
      style="stroke:blue;stroke-width:3.000000"/>
  <line x1="915.873844" y1="4.247519" x2="925.643895" y2="287.688235"
      style="stroke:blue;stroke-width:3.000000"/>
  <line x1="916.790791" y1="663.863281" x2="898.769999" y2="480.025660"
      style="stroke:blue;stroke-width:3.000000"/>
  <line x1="321.718692" y1="107.366074" x2="388.504925" y2="94.244768"
      style="stroke:blue;stroke-width:3.000000"/>
  <line x1="321.718692" y1="107.366074" x2="339.365606" y2="21.274169"
      style="stroke:blue;stroke-width:3.000000"/>
  <line x1="514.336819" y1="996.153057" x2="515.317963" y2="995.101835"
      style="stroke:blue;stroke-width:3.000000"/>
  <line x1="778.366847" y1="339.512918" x2="719.905313" y2="208.518699"
      style="stroke:blue;stroke-width:3.000000"/>
  <line x1="441.272624" y1="258.413459" x2="542.976512" y2="336.494909"
      style="stroke:blue;stroke-width:3.000000"/>
  <line x1="339.365606" y1="21.274169" x2="229.371540" y2="8.040543"
      style="stroke:blue;stroke-width:3.000000"/>
  <line x1="702.278059" y1="855.523301" x2="746.000049" y2="950.230668"
      style="stroke:blue;stroke-width:3.000000"/>
  <line x1="783.427669" y1="669.492380" x2="771.959722" y2="587.505755"
      style="stroke:blue;stroke-width:3.000000"/>
  <line x1="746.000049" y1="950.230668" x2="515.317963" y2="995.101835"
      style="stroke:blue;stroke-width:3.000000"/>
  <line x1="514.336819" y1="996.153057" x2="349.804544" y2="972.074531"
      style="stroke:blue;stroke-width:3.000000"/>
  <line x1="526.542156" y1="275.627919" x2="542.976512" y2="336.494909"
      style="stroke:blue;stroke-width:3.000000"/>
  <line x1="79.027099" y1="29.501220" x2="55.967558" y2="105.208480"
      style="stroke:blue;stroke-width:3.000000"/>
  <line x1="445.357820" y1="791.757383" x2="324.183186" y2="745.115323"
      style="stroke:blue;stroke-width:3.000000"/>
  <line x1="982.983341" y1="718.524011" x2="877.566527" y2="685.143837"
      style="stroke:blue;stroke-width:3.000000"/>
  <line x1="702.278059" y1="855.523301" x2="523.892558" y2="736.208838"
      style="stroke:blue;stroke-width:3.000000"/>
  <line x1="202.031307" y1="447.240728" x2="124.240726" y2="504.367085"
      style="stroke:blue;stroke-width:3.000000"/>
  <line x1="783.427669" y1="669.492380" x2="829.576368" y2="763.179876"
      style="stroke:blue;stroke-width:3.000000"/>
  <line x1="445.357820" y1="791.757383" x2="513.551408" y2="733.863527"
      style="stroke:blue;stroke-width:3.000000"/>
  <line x1="79.027099" y1="29.501220" x2="229.371540" y2="8.040543"
      style="stroke:blue;stroke-width:3.000000"/>
  <line x1="176.019875" y1="303.250886" x2="42.854518" y2="322.560125"
      style="stroke:blue;stroke-width:3.000000"/>
  <line x1="604.301025" y1="581.354714" x2="771.959722" y2="587.505755"
      style="stroke:blue;stroke-width:3.000000"/>
  <line x1="433.190987" y1="212.768887" x2="388.504925" y2="94.244768"
      style="stroke:blue;stroke-width:3.000000"/>
  <line x1="576.911578" y1="222.049988" x2="622.217740" y2="36.116104"
      style="stroke:blue;stroke-width:3.000000"/>
  <line x1="122.942007" y1="599.403434" x2="24.642342" y2="764.692660"
      style="stroke:blue;stroke-width:3.000000"/>
  <line x1="178.813056" y1="849.388394" x2="181.797556" y2="926.197622"
      style="stroke:blue;stroke-width:3.000000"/>
  <line x1="877.566527" y1="685.143837" x2="829.576368" y2="763.179876"
      style="stroke:blue;stroke-width:3.000000"/>
  <line x1="526.542156" y1="275.627919" x2="576.911578" y2="222.049988"
      style="stroke:blue;stroke-width:3.000000"/>
  <line x1="778.366847" y1="339.512918" x2="747.648768" y2="364.257955"
      style="stroke:blue;stroke-width:3.000000"/>
  <line x1="55.967558" y1="105.208480" x2="114.160720" y2="131.892569"
      style="stroke:blue;stroke-width:3.000000"/>
  <line x1="982.983341" y1="718.524011" x2="916.790791" y2="663.863281"
      style="stroke:blue;stroke-width:3.000000"/>
  <line x1="802.541198" y1="200.053909" x2="719.905313" y2="208.518699"
      style="stroke:blue;stroke-width:3.000000"/>
  <circle cx="514.336819" cy="996.153057" r="5.000000"
      style="stroke:black;stroke-width:1;fill:red" />
  <text x="514.836819" y="995.653057"
      style="font-family:Verdana;font-size:12">#59</text>
  <circle cx="114.160720" cy="131.892569" r="5.000000"
      style="stroke:black;stroke-width:1;fill:red" />
  <text x="114.660720" y="131.392569"
      style="font-family:Verdana;font-size:12">#89</text>
  <circle cx="778.366847" cy="339.512918" r="5.000000"
      style="stroke:black;stroke-width:1;fill:red" />
  <text x="778.866847" y="339.012918"
      style="font-family:Verdana;font-size:12">#64</text>
  <circle cx="149.111731" cy="828.464164" r="5.000000"
      style="stroke:black;stroke-width:1;fill:red" />
  <text x="149.611731" y="827.964164"
      style="font-family:Verdana;font-size:12">#103</text>
  <circle cx="542.976512" cy="336.494909" r="5.000000"
      style="stroke:black;stroke-width:1;fill:red" />
  <text x="543.476512" y="335.994909"
      style="font-family:Verdana;font-size:12">#97</text>
  <circle cx="79.027099" cy="29.501220" r="5.000000"
      style="stroke:black;stroke-width:1;fill:red" />
  <text x="79.527099" y="29.001220"
      style="font-family:Verdana;font-size:12">#67</text>
  <circle cx="206.138455" cy="147.300701" r="5.000000"
      style="stroke:black;stroke-width:1;fill:red" />
  <text x="206.638455" y="146.800701"
      style="font-family:Verdana;font-size:12">#105</text>
  <circle cx="181.797556" cy="926.197622" r="5.000000"
      style="stroke:black;stroke-width:1;fill:red" />
  <text x="182.297556" y="925.697622"
      style="font-family:Verdana;font-size:12">#75</text>
  <circle cx="441.272624" cy="258.413459" r="5.000000"
      style="stroke:black;stroke-width:1;fill:red" />
  <text x="441.772624" y="257.913459"
      style="font-family:Verdana;font-size:12">#91</text>
  <circle cx="445.357820" cy="791.757383" r="5.000000"
      style="stroke:black;stroke-width:1;fill:red" />
  <text x="445.857820" y="791.257383"
      style="font-family:Verdana;font-size:12">#100</text>
  <circle cx="982.983341" cy="718.524011" r="5.000000"
      style="stroke:black;stroke-width:1;fill:red" />
  <text x="983.483341" y="718.024011"
      style="font-family:Verdana;font-size:12">#106</text>
  <circle cx="472.938973" cy="662.023191" r="5.000000"
      style="stroke:black;stroke-width:1;fill:red" />
  <text x="473.438973" y="661.523191"
      style="font-family:Verdana;font-size:12">#93</text>
  <circle cx="388.504925" cy="94.244768" r="5.000000"
      style="stroke:black;stroke-width:1;fill:red" />
  <text x="389.004925" y="93.744768"
      style="font-family:Verdana;font-size:12">#99</text>
  <circle cx="771.959722" cy="587.505755" r="5.000000"
      style="stroke:black;stroke-width:1;fill:red" />
  <text x="772.459722" y="587.005755"
      style="font-family:Verdana;font-size:12">#86</text>
  <circle cx="604.301025" cy="581.354714" r="5.000000"
      style="stroke:black;stroke-width:1;fill:red" />
  <text x="604.801025" y="580.854714"
      style="font-family:Verdana;font-size:12">#60</text>
  <circle cx="702.278059" cy="855.523301" r="5.000000"
      style="stroke:black;stroke-width:1;fill:red" />
  <text x="702.778059" y="855.023301"
      style="font-family:Verdana;font-size:12">#107</text>
  <circle cx="523.892558" cy="736.208838" r="5.000000"
      style="stroke:black;stroke-width:1;fill:red" />
  <text x="524.392558" y="735.708838"
      style="font-family:Verdana;font-size:12">#78</text>
  <circle cx="178.813056" cy="849.388394" r="5.000000"
      style="stroke:black;stroke-width:1;fill:red" />
  <text x="179.313056" y="848.888394"
      style="font-family:Verdana;font-size:12">#62</text>
  <circle cx="324.183186" cy="745.115323" r="5.000000"
      style="stroke:black;stroke-width:1;fill:red" />
  <text x="324.683186" y="744.615323"
      style="font-family:Verdana;font-size:12">#65</text>
  <circle cx="719.905313" cy="208.518699" r="5.000000"
      style="stroke:black;stroke-width:1;fill:red" />
  <text x="720.405313" y="208.018699"
      style="font-family:Verdana;font-size:12">#73</text>
  <circle cx="42.854518" cy="322.560125" r="5.000000"
      style="stroke:black;stroke-width:1;fill:red" />
  <text x="43.354518" y="322.060125"
      style="font-family:Verdana;font-size:12">#85</text>
  <circle cx="229.371540" cy="8.040543" r="5.000000"
      style="stroke:black;stroke-width:1;fill:red" />
  <text x="229.871540" y="7.540543"
      style="font-family:Verdana;font-size:12">#98</text>
  <circle cx="349.804544" cy="972.074531" r="5.000000"
      style="stroke:black;stroke-width:1;fill:red" />
  <text x="350.304544" y="971.574531"
      style="font-family:Verdana;font-size:12">#90</text>
  <circle cx="747.648768" cy="364.257955" r="5.000000"
      style="stroke:black;stroke-width:1;fill:red" />
  <text x="748.148768" y="363.757955"
      style="font-family:Verdana;font-size:12">#96</text>
  <circle cx="622.217740" cy="36.116104" r="5.000000"
      style="stroke:black;stroke-width:1;fill:red" />
  <text x="622.717740" y="35.616104"
      style="font-family:Verdana;font-size:12">#88</text>
  <circle cx="79.220362" cy="388.152815" r="5.000000"
      style="stroke:black;stroke-width:1;fill:red" />
  <text x="79.720362" y="387.652815"
      style="font-family:Verdana;font-size:12">#77</text>
  <circle cx="746.000049" cy="950.230668" r="5.000000"
      style="stroke:black;stroke-width:1;fill:red" />
  <text x="746.500049" y="949.730668"
      style="font-family:Verdana;font-size:12">#69</text>
  <circle cx="122.942007" cy="599.403434" r="5.000000"
      style="stroke:black;stroke-width:1;fill:red" />
  <text x="123.442007" y="598.903434"
      style="font-family:Verdana;font-size:12">#58</text>
  <circle cx="898.769999" cy="480.025660" r="5.000000"
      style="stroke:black;stroke-width:1;fill:red" />
  <text x="899.269999" y="479.525660"
      style="font-family:Verdana;font-size:12">#82</text>
  <circle cx="513.551408" cy="733.863527" r="5.000000"
      style="stroke:black;stroke-width:1;fill:red" />
  <text x="514.051408" y="733.363527"
      style="font-family:Verdana;font-size:12">#81</text>
  <circle cx="916.790791" cy="663.863281" r="5.000000"
      style="stroke:black;stroke-width:1;fill:red" />
  <text x="917.290791" y="663.363281"
      style="font-family:Verdana;font-size:12">#72</text>
  <circle cx="55.967558" cy="105.208480" r="5.000000"
      style="stroke:black;stroke-width:1;fill:red" />
  <text x="56.467558" y="104.708480"
      style="font-family:Verdana;font-size:12">#87</text>
  <circle cx="24.642342" cy="764.692660" r="5.000000"
      style="stroke:black;stroke-width:1;fill:red" />
  <text x="25.142342" y="764.192660"
      style="font-family:Verdana;font-size:12">#68</text>
  <circle cx="925.643895" cy="287.688235" r="5.000000"
      style="stroke:black;stroke-width:1;fill:red" />
  <text x="926.143895" y="287.188235"
      style="font-family:Verdana;font-size:12">#74</text>
  <circle cx="433.190987" cy="212.768887" r="5.000000"
      style="stroke:black;stroke-width:1;fill:red" />
  <text x="433.690987" y="212.268887"
      style="font-family:Verdana;font-size:12">#102</text>
  <circle cx="877.566527" cy="685.143837" r="5.000000"
      style="stroke:black;stroke-width:1;fill:red" />
  <text x="878.066527" y="684.643837"
      style="font-family:Verdana;font-size:12">#61</text>
  <circle cx="515.317963" cy="995.101835" r="5.000000"
      style="stroke:black;stroke-width:1;fill:red" />
  <text x="515.817963" y="994.601835"
      style="font-family:Verdana;font-size:12">#84</text>
  <circle cx="802.541198" cy="200.053909" r="5.000000"
      style="stroke:black;stroke-width:1;fill:red" />
  <text x="803.041198" y="199.553909"
      style="font-family:Verdana;font-size:12">#63</text>
  <circle cx="202.031307" cy="447.240728" r="5.000000"
      style="stroke:black;stroke-width:1;fill:red" />
  <text x="202.531307" y="446.740728"
      style="font-family:Verdana;font-size:12">#83</text>
  <circle cx="325.578206" cy="616.952616" r="5.000000"
      style="stroke:black;stroke-width:1;fill:red" />
  <text x="326.078206" y="616.452616"
      style="font-family:Verdana;font-size:12">#76</text>
  <circle cx="576.911578" cy="222.049988" r="5.000000"
      style="stroke:black;stroke-width:1;fill:red" />
  <text x="577.411578" y="221.549988"
      style="font-family:Verdana;font-size:12">#66</text>
  <circle cx="124.240726" cy="504.367085" r="5.000000"
      style="stroke:black;stroke-width:1;fill:red" />
  <text x="124.740726" y="503.867085"
      style="font-family:Verdana;font-size:12">#95</text>
  <circle cx="783.427669" cy="669.492380" r="5.000000"
      style="stroke:black;stroke-width:1;fill:red" />
  <text x="783.927669" y="668.992380"
      style="font-family:Verdana;font-size:12">#70</text>
  <circle cx="321.718692" cy="107.366074" r="5.000000"
      style="stroke:black;stroke-width:1;fill:red" />
  <text x="322.218692" y="106.866074"
      style="font-family:Verdana;font-size:12">#79</text>
  <circle cx="339.365606" cy="21.274169" r="5.000000"
      style="stroke:black;stroke-width:1;fill:red" />
  <text x="339.865606" y="20.774169"
      style="font-family:Verdana;font-size:12">#94</text>
  <circle cx="176.019875" cy="303.250886" r="5.000000"
      style="stroke:black;stroke-width:1;fill:red" />
  <text x="176.519875" y="302.750886"
      style="font-family:Verdana;font-size:12">#104</text>
  <circle cx="915.873844" cy="4.247519" r="5.000000"
      style="stroke:black;stroke-width:1;fill:red" />
  <text x="916.373844" y="3.747519"
      style="font-family:Verdana;font-size:12">#71</text>
  <circle cx="829.576368" cy="763.179876" r="5.000000"
      style="stroke:black;stroke-width:1;fill:red" />
  <text x="830.076368" y="762.679876"
      style="font-family:Verdana;font-size:12">#92</text>
  <circle cx="183.772853" cy="446.738633" r="5.000000"
      style="stroke:black;stroke-width:1;fill:red" />
  <text x="184.272853" y="446.238633"
      style="font-family:Verdana;font-size:12">#80</text>
  <circle cx="526.542156" cy="275.627919" r="5.000000"
      style="stroke:black;stroke-width:1;fill:red" />
  <text x="527.042156" y="275.127919"
      style="font-family:Verdana;font-size:12">#101</text>
</svg>
