<!DOCTYPE svg PUBLIC "-//W3C//DTD SVG 1.1//EN" 
"http://www.w3.org/Graphics/SVG/1.1/DTD/svg11.dtd">
<svg width="100%" height="100%" version="1.1" xmlns="http://www.w3.org/2000/svg">
  <line x1="210.000000" y1="250.000000" x2="120.000000" y2="250.000000"
      style="stroke:grey;stroke-width:1.000000"/>
  <line x1="212.000000" y1="100.000000" x2="120.000000" y2="250.000000"
      style="stroke:grey;stroke-width:1.000000"/>
  <line x1="325.000000" y1="100.000000" x2="210.000000" y2="250.000000"
      style="stroke:grey;stroke-width:1.000000"/>
  <line x1="310.000000" y1="250.000000" x2="120.000000" y2="250.000000"
      style="stroke:grey;stroke-width:1.000000"/>
  <line x1="212.000000" y1="100.000000" x2="310.000000" y2="250.000000"
      style="stroke:grey;stroke-width:1.000000"/>
  <line x1="100.000000" y1="100.000000" x2="210.000000" y2="250.000000"
      style="stroke:grey;stroke-width:1.000000"/>
  <line x1="212.000000" y1="100.000000" x2="325.000000" y2="100.000000"
      style="stroke:grey;stroke-width:1.000000"/>
  <line x1="100.000000" y1="100.000000" x2="120.000000" y2="250.000000"
      style="stroke:grey;stroke-width:1.000000"/>
  <line x1="100.000000" y1="100.000000" x2="212.000000" y2="100.000000"
      style="stroke:grey;stroke-width:1.000000"/>
  <line x1="100.000000" y1="100.000000" x2="310.000000" y2="250.000000"
      style="stroke:grey;stroke-width:1.000000"/>
  <line x1="325.000000" y1="100.000000" x2="310.000000" y2="250.000000"
      style="stroke:grey;stroke-width:1.000000"/>
  <line x1="212.000000" y1="100.000000" x2="210.000000" y2="250.000000"
      style="stroke:grey;stroke-width:1.000000"/>
  <line x1="100.000000" y1="100.000000" x2="325.000000" y2="100.000000"
      style="stroke:grey;stroke-width:1.000000"/>
  <line x1="325.000000" y1="100.000000" x2="120.000000" y2="250.000000"
      style="stroke:grey;stroke-width:1.000000"/>
  <line x1="310.000000" y1="250.000000" x2="210.000000" y2="250.000000"
      style="stroke:grey;stroke-width:1.000000"/>
  <line x1="325.000000" y1="100.000000" x2="210.000000" y2="250.000000"
      style="stroke:blue;stroke-width:3.000000"/>
  <line x1="325.000000" y1="100.000000" x2="310.000000" y2="250.000000"
      style="stroke:blue;stroke-width:3.000000"/>
  <line x1="212.000000" y1="100.000000" x2="120.000000" y2="250.000000"
      style="stroke:blue;stroke-width:3.000000"/>
  <line x1="100.000000" y1="100.000000" x2="120.000000" y2="250.000000"
      style="stroke:blue;stroke-width:3.000000"/>
  <line x1="212.000000" y1="100.000000" x2="210.000000" y2="250.000000"
      style="stroke:blue;stroke-width:3.000000"/>
  <line x1="100.000000" y1="100.000000" x2="310.000000" y2="250.000000"
      style="stroke:blue;stroke-width:3.000000"/>
  <circle cx="100.000000" cy="100.000000" r="5.000000"
      style="stroke:black;stroke-width:1;fill:red" />
  <text x="105.000000" y="95.000000"
      style="font-family:Verdana;font-size:12">A</text>
  <circle cx="212.000000" cy="100.000000" r="5.000000"
      style="stroke:black;stroke-width:1;fill:red" />
  <text x="217.000000" y="95.000000"
      style="font-family:Verdana;font-size:12">B</text>
  <circle cx="325.000000" cy="100.000000" r="5.000000"
      style="stroke:black;stroke-width:1;fill:red" />
  <text x="330.000000" y="95.000000"
      style="font-family:Verdana;font-size:12">C</text>
  <circle cx="310.000000" cy="250.000000" r="5.000000"
      style="stroke:black;stroke-width:1;fill:red" />
  <text x="315.000000" y="245.000000"
      style="font-family:Verdana;font-size:12">D</text>
  <circle cx="210.000000" cy="250.000000" r="5.000000"
      style="stroke:black;stroke-width:1;fill:red" />
  <text x="215.000000" y="245.000000"
      style="font-family:Verdana;font-size:12">E</text>
  <circle cx="120.000000" cy="250.000000" r="5.000000"
      style="stroke:black;stroke-width:1;fill:red" />
  <text x="125.000000" y="245.000000"
      style="font-family:Verdana;font-size:12">F</text>
</svg>
